<?xml version="1.0" standalone="no"?>
<!DOCTYPE svg PUBLIC "-//W3C//DTD SVG 20010904//EN"
 "http://www.w3.org/TR/2001/REC-SVG-20010904/DTD/svg10.dtd">
<svg version="1.0" xmlns="http://www.w3.org/2000/svg"
 width="1000.000000pt" height="1000.000000pt" viewBox="0 0 1000.000000 1000.000000"
 preserveAspectRatio="xMidYMid meet">
<metadata>
Created by potrace 1.11, written by Peter Selinger 2001-2013
</metadata>
<g transform="translate(0.000000,1000.000000) scale(0.100000,-0.100000)"
fill="#000000" stroke="none">
<path d="M2398 6378 c-3 -13 -38 -149 -77 -303 -40 -154 -101 -395 -137 -535
-36 -140 -87 -340 -114 -445 -27 -104 -83 -325 -125 -490 -86 -338 -180 -707
-261 -1024 -30 -118 -53 -220 -50 -227 7 -19 518 -20 534 -1 6 6 49 165 97
352 47 187 113 444 145 570 142 557 240 944 240 950 0 4 5 5 12 3 6 -2 21 -47
34 -99 31 -137 85 -360 154 -639 33 -135 76 -310 95 -390 19 -80 51 -210 70
-290 19 -80 51 -212 71 -295 20 -82 41 -156 46 -163 8 -9 61 -12 222 -10 l211
3 445 894 c245 492 451 896 458 899 9 3 12 -51 12 -235 0 -511 22 -1548 34
-1555 20 -13 964 -10 972 4 8 12 33 1145 33 1536 1 178 4 241 12 236 10 -6
376 -739 784 -1569 49 -99 95 -188 103 -197 14 -16 37 -18 221 -18 113 0 212
4 219 8 12 8 36 101 176 677 272 1121 288 1190 292 1194 10 12 16 -7 130 -459
41 -162 111 -437 155 -610 45 -173 108 -423 141 -555 34 -132 66 -243 72 -247
16 -11 534 -10 540 1 3 4 -1 35 -10 67 -8 33 -55 217 -104 409 -49 193 -110
431 -135 530 -25 99 -79 311 -120 470 -40 160 -101 398 -135 530 -34 132 -93
362 -130 510 -38 149 -84 329 -102 400 l-34 130 -264 0 -265 0 -62 -250 c-34
-137 -73 -297 -87 -355 -104 -431 -142 -585 -176 -725 -59 -240 -156 -642
-171 -707 -8 -32 -17 -58 -21 -58 -7 0 -757 1500 -959 1918 l-88 182 -501 0
-501 0 -396 -797 c-718 -1449 -653 -1321 -663 -1302 -4 8 -22 73 -40 144 -49
201 -136 560 -160 660 -12 50 -57 234 -100 410 -43 176 -95 390 -115 475 -21
85 -52 211 -69 280 l-31 125 -261 3 -262 2 -4 -22z m3084 -48 c391 -798 1037
-2081 1050 -2086 44 -14 54 2 87 134 17 70 58 240 91 377 34 138 78 322 100
410 21 88 57 237 80 330 23 94 70 287 105 430 35 143 71 294 81 335 28 121 3
110 254 110 120 0 221 -4 224 -8 3 -5 35 -125 71 -268 37 -142 96 -374 131
-514 36 -140 87 -340 114 -445 48 -190 125 -490 260 -1020 40 -154 95 -368
122 -475 28 -107 53 -210 55 -227 l5 -33 -226 0 c-225 0 -226 0 -236 23 -5 12
-50 184 -101 382 -50 198 -117 464 -149 590 -32 127 -95 376 -140 555 -46 179
-89 335 -96 348 -8 12 -23 22 -33 22 -35 0 -26 31 -165 -540 -25 -102 -63
-261 -86 -355 -23 -93 -61 -253 -86 -355 -25 -102 -59 -241 -75 -310 -17 -69
-43 -177 -59 -240 l-28 -115 -190 -3 -191 -2 -60 122 c-135 278 -813 1645
-831 1675 -21 35 -49 43 -70 18 -10 -12 -14 -213 -21 -873 -5 -471 -11 -876
-14 -900 l-6 -42 -207 2 -207 3 -3 1470 c-1 809 0 1480 3 1493 l5 22 213 -2
212 -3 17 -35z"/>
</g>
</svg>
